<svg xmlns="http://www.w3.org/2000/svg" width="760" height="650" viewBox="0 0 760 650">
<style>text{font-family:Arial,sans-serif;fill:#222}.title{font-size:24px;font-weight:700}.axis{font-size:14px}.label{font-size:13px}.small{font-size:11px}.grid{stroke:#ddd;stroke-width:1}.line{stroke:#333;stroke-width:1.4}.dash{stroke:#666;stroke-width:1.2;stroke-dasharray:6 5}.bar1{fill:#5078a0}.bar2{fill:#c7d5e3}.dot{fill:#5078a0;fill-opacity:.75}.box{fill:#edf3f8;stroke:#5078a0;stroke-width:1.5}</style>
<text x="380.0" y="34" text-anchor="middle" class="title">Figure 3. Species-level trait architecture is multidimensional</text>
<text x="335.0" y="75" text-anchor="middle" class="axis">PC1 (32.9%)</text><text x="465.0" y="75" text-anchor="middle" class="axis">PC2 (23.2%)</text><text x="595.0" y="75" text-anchor="middle" class="axis">PC3 (13.2%)</text>
<text x="255" y="122" text-anchor="end" class="label">Orientation</text><rect x="270" y="90" width="125" height="47" fill="#dcbbb5" stroke="#fff"/><text x="332.5" y="121" text-anchor="middle" class="label">-0.12</text><rect x="400" y="90" width="125" height="47" fill="#9ab2c9" stroke="#fff"/><text x="462.5" y="121" text-anchor="middle" class="label">0.24</text><rect x="530" y="90" width="125" height="47" fill="#bc6c60" stroke="#fff"/><text x="592.5" y="121" text-anchor="middle" class="label">-0.59</text>
<text x="255" y="174" text-anchor="end" class="label">Lightness</text><rect x="270" y="142" width="125" height="47" fill="#d09c94" stroke="#fff"/><text x="332.5" y="173" text-anchor="middle" class="label">-0.30</text><rect x="400" y="142" width="125" height="47" fill="#7394b6" stroke="#fff"/><text x="462.5" y="173" text-anchor="middle" class="label">0.45</text><rect x="530" y="142" width="125" height="47" fill="#bbcad9" stroke="#fff"/><text x="592.5" y="173" text-anchor="middle" class="label">0.07</text>
<text x="255" y="226" text-anchor="end" class="label">Chroma</text><rect x="270" y="194" width="125" height="47" fill="#9db4cb" stroke="#fff"/><text x="332.5" y="225" text-anchor="middle" class="label">0.23</text><rect x="400" y="194" width="125" height="47" fill="#c58379" stroke="#fff"/><text x="462.5" y="225" text-anchor="middle" class="label">-0.45</text><rect x="530" y="194" width="125" height="47" fill="#d2a29a" stroke="#fff"/><text x="592.5" y="225" text-anchor="middle" class="label">-0.27</text>
<text x="255" y="278" text-anchor="end" class="label">Hue sine</text><rect x="270" y="246" width="125" height="47" fill="#d2a29b" stroke="#fff"/><text x="332.5" y="277" text-anchor="middle" class="label">-0.27</text><rect x="400" y="246" width="125" height="47" fill="#6a8eb2" stroke="#fff"/><text x="462.5" y="277" text-anchor="middle" class="label">0.50</text><rect x="530" y="246" width="125" height="47" fill="#a8bcd0" stroke="#fff"/><text x="592.5" y="277" text-anchor="middle" class="label">0.17</text>
<text x="255" y="330" text-anchor="end" class="label">Hue cosine</text><rect x="270" y="298" width="125" height="47" fill="#7d9cbb" stroke="#fff"/><text x="332.5" y="329" text-anchor="middle" class="label">0.40</text><rect x="400" y="298" width="125" height="47" fill="#c1cedc" stroke="#fff"/><text x="462.5" y="329" text-anchor="middle" class="label">0.04</text><rect x="530" y="298" width="125" height="47" fill="#93acc6" stroke="#fff"/><text x="592.5" y="329" text-anchor="middle" class="label">0.28</text>
<text x="255" y="382" text-anchor="end" class="label">Aspect ratio</text><rect x="270" y="350" width="125" height="47" fill="#dcbab5" stroke="#fff"/><text x="332.5" y="381" text-anchor="middle" class="label">-0.12</text><rect x="400" y="350" width="125" height="47" fill="#d9b3ad" stroke="#fff"/><text x="462.5" y="381" text-anchor="middle" class="label">-0.16</text><rect x="530" y="350" width="125" height="47" fill="#4975a2" stroke="#fff"/><text x="592.5" y="381" text-anchor="middle" class="label">0.67</text>
<text x="255" y="434" text-anchor="end" class="label">Circularity</text><rect x="270" y="402" width="125" height="47" fill="#c6857b" stroke="#fff"/><text x="332.5" y="433" text-anchor="middle" class="label">-0.44</text><rect x="400" y="402" width="125" height="47" fill="#ca8f86" stroke="#fff"/><text x="462.5" y="433" text-anchor="middle" class="label">-0.38</text><rect x="530" y="402" width="125" height="47" fill="#e4cdc9" stroke="#fff"/><text x="592.5" y="433" text-anchor="middle" class="label">-0.01</text>
<text x="255" y="486" text-anchor="end" class="label">Solidity</text><rect x="270" y="454" width="125" height="47" fill="#c6857b" stroke="#fff"/><text x="332.5" y="485" text-anchor="middle" class="label">-0.44</text><rect x="400" y="454" width="125" height="47" fill="#d09d95" stroke="#fff"/><text x="462.5" y="485" text-anchor="middle" class="label">-0.30</text><rect x="530" y="454" width="125" height="47" fill="#c0cedb" stroke="#fff"/><text x="592.5" y="485" text-anchor="middle" class="label">0.04</text>
<text x="255" y="538" text-anchor="end" class="label">Width-profile CV</text><rect x="270" y="506" width="125" height="47" fill="#7193b5" stroke="#fff"/><text x="332.5" y="537" text-anchor="middle" class="label">0.46</text><rect x="400" y="506" width="125" height="47" fill="#adc0d2" stroke="#fff"/><text x="462.5" y="537" text-anchor="middle" class="label">0.14</text><rect x="530" y="506" width="125" height="47" fill="#b7c7d7" stroke="#fff"/><text x="592.5" y="537" text-anchor="middle" class="label">0.09</text>
</svg>