<svg xmlns="http://www.w3.org/2000/svg" width="1100" height="530" viewBox="0 0 1100 530"><style>text{font-family:Arial,sans-serif;fill:#222}.title{font-size:24px;font-weight:700}.axis{font-size:14px}.label{font-size:13px}.small{font-size:11px}.grid{stroke:#ddd;stroke-width:1}.bar1{fill:#5078a0}</style><text x="550" y="34" text-anchor="middle" class="title">Figure 8. Historical inference is limited by uneven direct and molecular coverage</text><line x1="260" y1="65" x2="260" y2="445" class="grid"/><text x="260" y="475" text-anchor="middle" class="small">0%</text><line x1="408" y1="65" x2="408" y2="445" class="grid"/><text x="408" y="475" text-anchor="middle" class="small">20%</text><line x1="556" y1="65" x2="556" y2="445" class="grid"/><text x="556" y="475" text-anchor="middle" class="small">40%</text><line x1="704" y1="65" x2="704" y2="445" class="grid"/><text x="704" y="475" text-anchor="middle" class="small">60%</text><line x1="852" y1="65" x2="852" y2="445" class="grid"/><text x="852" y="475" text-anchor="middle" class="small">80%</text><line x1="1000" y1="65" x2="1000" y2="445" class="grid"/><text x="1000" y="475" text-anchor="middle" class="small">100%</text><text x="225" y="97" text-anchor="end" class="label">Direct dated-backbone tips</text><rect x="260" y="75" width="185" height="30" class="bar1"/><text x="452" y="96" class="small">54/216 (25.0%)</text><text x="225" y="159" text-anchor="end" class="label">Any nucleotide record</text><rect x="260" y="137" width="472.78" height="30" class="bar1"/><text x="739.78" y="158" class="small">138/216 (63.9%)</text><text x="225" y="221" text-anchor="end" class="label">ITS record</text><rect x="260" y="199" width="455.65" height="30" class="bar1"/><text x="722.65" y="220" class="small">133/216 (61.6%)</text><text x="225" y="283" text-anchor="end" class="label">Plastid record</text><rect x="260" y="261" width="441.94" height="30" class="bar1"/><text x="708.94" y="282" class="small">129/216 (59.7%)</text><text x="225" y="345" text-anchor="end" class="label">Complete plastome</text><rect x="260" y="323" width="37.69" height="30" class="bar1"/><text x="304.69" y="344" class="small">11/216 (5.1%)</text><text x="225" y="407" text-anchor="end" class="label">SRA record</text><rect x="260" y="385" width="411.11" height="30" class="bar1"/><text x="678.11" y="406" class="small">120/216 (55.6%)</text><text x="630" y="515" text-anchor="middle" class="axis">Coverage among 216 image-analysis taxa</text></svg>