<svg xmlns="http://www.w3.org/2000/svg" width="1000" height="540" viewBox="0 0 1000 540"><style>text{font-family:Arial,sans-serif;fill:#222}.title{font-size:24px;font-weight:700}.axis{font-size:14px}.small{font-size:11px}.grid{stroke:#ddd;stroke-width:1}</style><text x="500" y="34" text-anchor="middle" class="title">Figure 7. The two-axis result is stable to the minimum sample threshold</text><line x1="100" y1="80" x2="100" y2="430" class="grid"/><text x="100" y="455" text-anchor="middle" class="axis">5</text><line x1="366.7" y1="80" x2="366.7" y2="430" class="grid"/><text x="366.7" y="455" text-anchor="middle" class="axis">10</text><line x1="900" y1="80" x2="900" y2="430" class="grid"/><text x="900" y="455" text-anchor="middle" class="axis">20</text><line x1="100" y1="430" x2="900" y2="430" class="grid"/><text x="92" y="434" text-anchor="end" class="small">0.85</text><line x1="100" y1="320.6" x2="900" y2="320.6" class="grid"/><text x="92" y="324.6" text-anchor="end" class="small">0.90</text><line x1="100" y1="211.3" x2="900" y2="211.3" class="grid"/><text x="92" y="215.3" text-anchor="end" class="small">0.95</text><line x1="100" y1="101.9" x2="900" y2="101.9" class="grid"/><text x="92" y="105.9" text-anchor="end" class="small">1.00</text><polyline points="100,235 366.7,101.9 900,289.4" fill="none" stroke="#5078a0" stroke-width="3"/><circle cx="100" cy="235" r="5" fill="#5078a0"/><text x="108" y="227" class="small">0.939</text><circle cx="366.7" cy="101.9" r="5" fill="#5078a0"/><text x="374.7" y="93.9" class="small">1.000</text><circle cx="900" cy="289.4" r="5" fill="#5078a0"/><text x="908" y="281.4" class="small">0.914</text><line x1="500" y1="60" x2="530" y2="60" stroke="#5078a0" stroke-width="3"/><text x="538" y="64" class="small">Within-variation ranking</text><polyline points="100,103.9 366.7,101.9 900,129.3" fill="none" stroke="#a45a52" stroke-width="3"/><circle cx="100" cy="103.9" r="5" fill="#a45a52"/><text x="108" y="95.9" class="small">0.999</text><circle cx="366.7" cy="101.9" r="5" fill="#a45a52"/><text x="374.7" y="93.9" class="small">1.000</text><circle cx="900" cy="129.3" r="5" fill="#a45a52"/><text x="908" y="121.3" class="small">0.987</text><line x1="500" y1="85" x2="530" y2="85" stroke="#a45a52" stroke-width="3"/><text x="538" y="89" class="small">Responsiveness ranking</text><text x="500" y="515" text-anchor="middle" class="axis">Minimum observations per species-trait combination</text><text x="25" y="275" transform="rotate(-90 25 275)" text-anchor="middle" class="axis">Spearman correlation with primary ranking</text></svg>