<svg xmlns="http://www.w3.org/2000/svg" width="780" height="540" viewBox="0 0 780 540"><style>text{font-family:Arial,sans-serif;fill:#222}.title{font-size:24px;font-weight:700}.axis{font-size:14px}.small{font-size:11px}.grid{stroke:#ddd;stroke-width:1}.bar1{fill:#5078a0}.bar2{fill:#c7d5e3}</style><text x="390" y="34" text-anchor="middle" class="title">Figure 5. Trait modules occupy different regions of lability space</text><line x1="95" y1="440" x2="715" y2="440" class="grid"/><text x="87" y="444" text-anchor="end" class="small">0.0</text><line x1="95" y1="344" x2="715" y2="344" class="grid"/><text x="87" y="348" text-anchor="end" class="small">0.2</text><line x1="95" y1="248" x2="715" y2="248" class="grid"/><text x="87" y="252" text-anchor="end" class="small">0.4</text><line x1="95" y1="152" x2="715" y2="152" class="grid"/><text x="87" y="156" text-anchor="end" class="small">0.6</text><rect x="173" y="174.72" width="42" height="265.28" class="bar1"/><text x="194" y="167.72" text-anchor="middle" class="small">0.553</text><rect x="215" y="356.10" width="42" height="83.90" class="bar2"/><text x="236" y="349.10" text-anchor="middle" class="small">0.175</text><text x="205" y="475" text-anchor="middle" class="axis">Colour</text><rect x="373" y="137.52" width="42" height="302.48" class="bar1"/><text x="394" y="130.52" text-anchor="middle" class="small">0.630</text><rect x="415" y="377.90" width="42" height="62.10" class="bar2"/><text x="436" y="370.90" text-anchor="middle" class="small">0.129</text><text x="405" y="475" text-anchor="middle" class="axis">Orientation</text><rect x="573" y="120.98" width="42" height="319.02" class="bar1"/><text x="594" y="113.98" text-anchor="middle" class="small">0.665</text><rect x="615" y="366.58" width="42" height="73.42" class="bar2"/><text x="636" y="359.58" text-anchor="middle" class="small">0.153</text><text x="605" y="475" text-anchor="middle" class="axis">Shape</text><rect x="480" y="58" width="16" height="12" class="bar1"/><text x="502" y="69" class="small">Within variation</text><rect x="610" y="58" width="16" height="12" class="bar2"/><text x="632" y="69" class="small">Responsiveness</text></svg>