<svg xmlns="http://www.w3.org/2000/svg" width="900" height="650" viewBox="0 0 900 650"><style>text{font-family:Arial,sans-serif;fill:#222}.title{font-size:24px;font-weight:700}.axis{font-size:14px}.small{font-size:11px}.grid{stroke:#ddd;stroke-width:1}.dash{stroke:#666;stroke-width:1.2;stroke-dasharray:6 5}.dot{fill:#5078a0;fill-opacity:.75}</style><text x="450" y="34" text-anchor="middle" class="title">Figure 4. Variation and environmental responsiveness are distinct axes</text><g class="grid"><line x1="100" y1="80" x2="100" y2="560"/><line x1="244" y1="80" x2="244" y2="560"/><line x1="388" y1="80" x2="388" y2="560"/><line x1="532" y1="80" x2="532" y2="560"/><line x1="676" y1="80" x2="676" y2="560"/><line x1="820" y1="80" x2="820" y2="560"/><line x1="100" y1="560" x2="820" y2="560"/><line x1="100" y1="464" x2="820" y2="464"/><line x1="100" y1="368" x2="820" y2="368"/><line x1="100" y1="272" x2="820" y2="272"/><line x1="100" y1="176" x2="820" y2="176"/><line x1="100" y1="80" x2="820" y2="80"/></g><g class="small"><text x="100" y="584" text-anchor="middle">0.39</text><text x="244" y="584" text-anchor="middle">0.51</text><text x="388" y="584" text-anchor="middle">0.63</text><text x="532" y="584" text-anchor="middle">0.74</text><text x="676" y="584" text-anchor="middle">0.86</text><text x="820" y="584" text-anchor="middle">0.97</text><text x="92" y="564" text-anchor="end">0.03</text><text x="92" y="468" text-anchor="end">0.10</text><text x="92" y="372" text-anchor="end">0.18</text><text x="92" y="276" text-anchor="end">0.26</text><text x="92" y="180" text-anchor="end">0.34</text><text x="92" y="84" text-anchor="end">0.41</text></g><line x1="379.5" y1="80" x2="379.5" y2="560" class="dash"/><line x1="100" y1="395.6" x2="820" y2="395.6" class="dash"/><g class="dot"><circle cx="373.5" cy="509.3" r="4.2"/><circle cx="188.6" cy="464.1" r="4.2"/><circle cx="354.3" cy="310.5" r="4.2"/><circle cx="434.1" cy="506.1" r="4.2"/><circle cx="211.2" cy="243.1" r="4.2"/><circle cx="373.2" cy="437.4" r="4.2"/><circle cx="820" cy="316.8" r="4.2"/><circle cx="409.9" cy="234.6" r="4.2"/><circle cx="466.9" cy="455.3" r="4.2"/><circle cx="400.4" cy="560" r="4.2"/><circle cx="400.5" cy="439.7" r="4.2"/><circle cx="322.3" cy="356.8" r="4.2"/><circle cx="174.9" cy="80" r="4.2"/><circle cx="575.9" cy="472" r="4.2"/><circle cx="287.3" cy="356.1" r="4.2"/><circle cx="154.5" cy="456.9" r="4.2"/><circle cx="440.9" cy="519" r="4.2"/><circle cx="276.5" cy="289.7" r="4.2"/><circle cx="318.7" cy="411.8" r="4.2"/><circle cx="253.1" cy="302.9" r="4.2"/><circle cx="379.5" cy="370.6" r="4.2"/><circle cx="359.6" cy="308.7" r="4.2"/><circle cx="255.9" cy="266.6" r="4.2"/><circle cx="242.9" cy="293.4" r="4.2"/><circle cx="183.1" cy="466.6" r="4.2"/><circle cx="379.5" cy="522.1" r="4.2"/><circle cx="378.2" cy="416.4" r="4.2"/><circle cx="444.6" cy="268.5" r="4.2"/><circle cx="452.1" cy="471.3" r="4.2"/><circle cx="294.7" cy="408.5" r="4.2"/><circle cx="418.8" cy="442.4" r="4.2"/><circle cx="387.4" cy="460.2" r="4.2"/><circle cx="496.9" cy="373" r="4.2"/><circle cx="344.8" cy="506" r="4.2"/><circle cx="560.5" cy="371.8" r="4.2"/><circle cx="357.8" cy="415" r="4.2"/><circle cx="429.6" cy="522.2" r="4.2"/><circle cx="541.9" cy="190.5" r="4.2"/><circle cx="390.7" cy="341.5" r="4.2"/><circle cx="282.5" cy="129.1" r="4.2"/><circle cx="249.2" cy="227.5" r="4.2"/><circle cx="305.5" cy="293.4" r="4.2"/><circle cx="526" cy="474" r="4.2"/><circle cx="480.3" cy="535" r="4.2"/><circle cx="255.3" cy="479.1" r="4.2"/><circle cx="497.7" cy="485.3" r="4.2"/><circle cx="242.9" cy="231.3" r="4.2"/><circle cx="423.4" cy="358.5" r="4.2"/><circle cx="462.2" cy="479.7" r="4.2"/><circle cx="244.3" cy="247" r="4.2"/><circle cx="555.9" cy="171" r="4.2"/><circle cx="331.8" cy="271.6" r="4.2"/><circle cx="300.6" cy="131.4" r="4.2"/><circle cx="365.4" cy="151.2" r="4.2"/><circle cx="444.6" cy="428.8" r="4.2"/><circle cx="272.3" cy="375.5" r="4.2"/><circle cx="408.6" cy="476.7" r="4.2"/><circle cx="399.1" cy="498.8" r="4.2"/><circle cx="376.8" cy="404.6" r="4.2"/><circle cx="487.2" cy="252.2" r="4.2"/><circle cx="321.8" cy="431.2" r="4.2"/><circle cx="266" cy="429.4" r="4.2"/><circle cx="450.6" cy="492.2" r="4.2"/><circle cx="345.1" cy="464.1" r="4.2"/><circle cx="425" cy="537.7" r="4.2"/><circle cx="384.9" cy="286.8" r="4.2"/><circle cx="461.5" cy="530.4" r="4.2"/><circle cx="354.7" cy="394.9" r="4.2"/><circle cx="300.5" cy="443.6" r="4.2"/><circle cx="518.6" cy="358.5" r="4.2"/><circle cx="427.7" cy="232.9" r="4.2"/><circle cx="384.2" cy="274.6" r="4.2"/><circle cx="100" cy="175.4" r="4.2"/><circle cx="434.8" cy="489.8" r="4.2"/><circle cx="407.9" cy="247.4" r="4.2"/><circle cx="299.5" cy="251.2" r="4.2"/><circle cx="401.2" cy="306.4" r="4.2"/><circle cx="206.6" cy="381.5" r="4.2"/><circle cx="454.8" cy="431.4" r="4.2"/><circle cx="341" cy="399.8" r="4.2"/><circle cx="261.5" cy="232.6" r="4.2"/><circle cx="343.4" cy="484.1" r="4.2"/><circle cx="433.5" cy="461" r="4.2"/><circle cx="415" cy="152.3" r="4.2"/><circle cx="390.4" cy="229.7" r="4.2"/><circle cx="155.8" cy="325.2" r="4.2"/><circle cx="449" cy="421.5" r="4.2"/><circle cx="449.7" cy="490.4" r="4.2"/><circle cx="517.4" cy="255.9" r="4.2"/><circle cx="444.4" cy="468.7" r="4.2"/><circle cx="376" cy="396.3" r="4.2"/><circle cx="408.6" cy="530.3" r="4.2"/><circle cx="313.2" cy="381.7" r="4.2"/><circle cx="144.9" cy="211.3" r="4.2"/><circle cx="434.6" cy="461.8" r="4.2"/><circle cx="286.9" cy="419.6" r="4.2"/><circle cx="369.7" cy="457.6" r="4.2"/><circle cx="332.9" cy="177.2" r="4.2"/><circle cx="402.5" cy="270.5" r="4.2"/><circle cx="521.5" cy="557.6" r="4.2"/><circle cx="311.1" cy="348" r="4.2"/><circle cx="411.5" cy="352.1" r="4.2"/></g><text x="120" y="120" class="axis">Spearman ρ = -0.333</text><text x="120" y="143" class="axis">N = 102 taxa</text><text x="460" y="625" text-anchor="middle" class="axis">Species within-variation index</text><text x="25" y="330" transform="rotate(-90 25 330)" text-anchor="middle" class="axis">Species environmental-responsiveness index</text></svg>