<svg xmlns="http://www.w3.org/2000/svg" width="900" height="620" viewBox="0 0 900 620">
<style>text{font-family:Arial,sans-serif;fill:#222}.title{font-size:24px;font-weight:700}.axis{font-size:14px}.label{font-size:13px}.small{font-size:11px}.grid{stroke:#ddd;stroke-width:1}.line{stroke:#333;stroke-width:1.4}.dash{stroke:#666;stroke-width:1.2;stroke-dasharray:6 5}.bar1{fill:#5078a0}.bar2{fill:#c7d5e3}.dot{fill:#5078a0;fill-opacity:.75}.box{fill:#edf3f8;stroke:#5078a0;stroke-width:1.5}</style>
<text x="450.0" y="34" text-anchor="middle" class="title">Figure 2. Most visible trait variance occurs within species</text>
<line x1="190.0" y1="70" x2="190.0" y2="545" class="grid"/><text x="190.0" y="570" text-anchor="middle" class="axis">0.0</text>
<line x1="318.0" y1="70" x2="318.0" y2="545" class="grid"/><text x="318.0" y="570" text-anchor="middle" class="axis">0.2</text>
<line x1="446.0" y1="70" x2="446.0" y2="545" class="grid"/><text x="446.0" y="570" text-anchor="middle" class="axis">0.4</text>
<line x1="574.0" y1="70" x2="574.0" y2="545" class="grid"/><text x="574.0" y="570" text-anchor="middle" class="axis">0.6</text>
<line x1="702.0" y1="70" x2="702.0" y2="545" class="grid"/><text x="702.0" y="570" text-anchor="middle" class="axis">0.8</text>
<line x1="830.0" y1="70" x2="830.0" y2="545" class="grid"/><text x="830.0" y="570" text-anchor="middle" class="axis">1.0</text>
<text x="180" y="99" text-anchor="end" class="label">Lightness</text><rect x="190" y="80" width="522.7225069449267" height="28" class="bar1"/><rect x="712.7225069449267" y="80" width="117.27749305507325" height="28" class="bar2"/><text x="707.7225069449267" y="99" text-anchor="end" fill="white" class="small">0.817</text>
<text x="180" y="151" text-anchor="end" class="label">Chroma</text><rect x="190" y="132" width="539.1016667922684" height="28" class="bar1"/><rect x="729.1016667922684" y="132" width="100.89833320773164" height="28" class="bar2"/><text x="724.1016667922684" y="151" text-anchor="end" fill="white" class="small">0.842</text>
<text x="180" y="203" text-anchor="end" class="label">Hue sine</text><rect x="190" y="184" width="539.1851579099878" height="28" class="bar1"/><rect x="729.1851579099878" y="184" width="100.81484209001223" height="28" class="bar2"/><text x="724.1851579099878" y="203" text-anchor="end" fill="white" class="small">0.842</text>
<text x="180" y="255" text-anchor="end" class="label">Hue cosine</text><rect x="190" y="236" width="608.2853743272359" height="28" class="bar1"/><rect x="798.2853743272359" y="236" width="31.7146256727641" height="28" class="bar2"/><text x="793.2853743272359" y="255" text-anchor="end" fill="white" class="small">0.950</text>
<text x="180" y="307" text-anchor="end" class="label">Solidity</text><rect x="190" y="288" width="620.1505803628111" height="28" class="bar1"/><rect x="810.1505803628111" y="288" width="19.84941963718893" height="28" class="bar2"/><text x="805.1505803628111" y="307" text-anchor="end" fill="white" class="small">0.969</text>
<text x="180" y="359" text-anchor="end" class="label">Orientation</text><rect x="190" y="340" width="621.3966560479709" height="28" class="bar1"/><rect x="811.3966560479709" y="340" width="18.60334395202915" height="28" class="bar2"/><text x="806.3966560479709" y="359" text-anchor="end" fill="white" class="small">0.971</text>
<text x="180" y="411" text-anchor="end" class="label">Circularity</text><rect x="190" y="392" width="624.7780074302224" height="28" class="bar1"/><rect x="814.7780074302224" y="392" width="15.221992569777626" height="28" class="bar2"/><text x="809.7780074302224" y="411" text-anchor="end" fill="white" class="small">0.976</text>
<text x="180" y="463" text-anchor="end" class="label">Width-profile CV</text><rect x="190" y="444" width="627.0818321909325" height="28" class="bar1"/><rect x="817.0818321909325" y="444" width="12.91816780906754" height="28" class="bar2"/><text x="812.0818321909325" y="463" text-anchor="end" fill="white" class="small">0.980</text>
<text x="180" y="515" text-anchor="end" class="label">Aspect ratio</text><rect x="190" y="496" width="632.3918025934198" height="28" class="bar1"/><rect x="822.3918025934198" y="496" width="7.608197406580189" height="28" class="bar2"/><text x="817.3918025934198" y="515" text-anchor="end" fill="white" class="small">0.988</text>
<text x="510" y="605" text-anchor="middle" class="axis">Fraction of visible variance</text><rect x="620" y="50" width="16" height="12" class="bar1"/><text x="642" y="61" class="small">Within species</text><rect x="735" y="50" width="16" height="12" class="bar2"/><text x="757" y="61" class="small">Among species</text>
</svg>