<svg xmlns="http://www.w3.org/2000/svg" width="850" height="620" viewBox="0 0 850 620"><style>text{font-family:Arial,sans-serif;fill:#222}.title{font-size:24px;font-weight:700}.axis{font-size:14px}.small{font-size:11px}.grid{stroke:#ddd;stroke-width:1}.dot{fill:#5078a0;fill-opacity:.75}</style><text x="425" y="34" text-anchor="middle" class="title">Figure 6. Environmental sorting is strongest for orientation and colour</text><g class="grid"><line x1="90" y1="80" x2="90" y2="530"/><line x1="260" y1="80" x2="260" y2="530"/><line x1="430" y1="80" x2="430" y2="530"/><line x1="600" y1="80" x2="600" y2="530"/><line x1="770" y1="80" x2="770" y2="530"/><line x1="90" y1="530" x2="770" y2="530"/><line x1="90" y1="440" x2="770" y2="440"/><line x1="90" y1="350" x2="770" y2="350"/><line x1="90" y1="260" x2="770" y2="260"/><line x1="90" y1="170" x2="770" y2="170"/><line x1="90" y1="80" x2="770" y2="80"/></g><g class="small"><text x="90" y="552" text-anchor="middle">0.60</text><text x="260" y="552" text-anchor="middle">0.70</text><text x="430" y="552" text-anchor="middle">0.80</text><text x="600" y="552" text-anchor="middle">0.90</text><text x="770" y="552" text-anchor="middle">1.00</text><text x="82" y="534" text-anchor="end">0.0</text><text x="82" y="444" text-anchor="end">0.5</text><text x="82" y="354" text-anchor="end">1.0</text><text x="82" y="264" text-anchor="end">1.6</text><text x="82" y="174" text-anchor="end">2.1</text><text x="82" y="84" text-anchor="end">2.6</text></g><circle cx="338.5" cy="115" r="6" class="dot"/><text x="346.5" y="108" class="small">Orientation</text><circle cx="540" cy="388" r="6" class="dot"/><text x="548" y="381" class="small">Lightness</text><circle cx="249.6" cy="247.6" r="6" class="dot"/><text x="257.6" y="240.6" class="small">Chroma</text><circle cx="459.7" cy="217.2" r="6" class="dot"/><text x="467.7" y="210.2" class="small">Hue sine</text><circle cx="159.7" cy="137" r="6" class="dot"/><text x="167.7" y="130" class="small">Hue cosine</text><circle cx="697" cy="351.2" r="6" class="dot"/><text x="705" y="344.2" class="small">Aspect ratio</text><circle cx="617" cy="373.5" r="6" class="dot"/><text x="625" y="366.5" class="small">Circularity</text><circle cx="672.1" cy="432.1" r="6" class="dot"/><text x="680.1" y="425.1" class="small">Solidity</text><circle cx="513" cy="242.3" r="6" class="dot"/><text x="521" y="235.3" class="small">Width-profile CV</text><text x="430" y="600" text-anchor="middle" class="axis">Gaussian Bhattacharyya niche overlap</text><text x="25" y="310" transform="rotate(-90 25 310)" text-anchor="middle" class="axis">Environmental centroid distance</text></svg>